<svg width="407" height="38" viewBox="0 0 377 18" fill="none" xmlns="http://www.w3.org/2000/svg">
 <path d="M178.33 0.669922H148.33C148.065 0.669922 147.811 0.775279 147.623 0.962815C147.435 1.15035 147.33 1.40471 147.33 1.66992V16.3299C147.33 16.5951 147.435 16.8495 147.623 17.037C147.811 17.2246 148.065 17.3299 148.33 17.3299H178.33C178.595 17.3299 178.85 17.2246 179.037 17.037C179.225 16.8495 179.33 16.5951 179.33 16.3299V1.66992C179.33 1.40471 179.225 1.15035 179.037 0.962815C178.85 0.775279 178.595 0.669922 178.33 0.669922V0.669922Z" fill="white" stroke="#E0E0E0" stroke-width="0.67"/>
<path fill-rule="evenodd" clip-rule="evenodd" d="M160.3 4H166.41C167.736 4 169.008 4.52678 169.945 5.46447C170.883 6.40215 171.41 7.67392 171.41 9C171.41 9.9894 171.116 10.9565 170.566 11.7789C170.016 12.6013 169.234 13.242 168.32 13.62C167.711 13.8704 167.058 13.9995 166.4 14H160.3V4Z" fill="#184977"/>
<path d="M160.3 13.5002C161.188 13.4903 162.053 13.2181 162.786 12.7176C163.52 12.2172 164.089 11.511 164.422 10.6879C164.755 9.86484 164.837 8.96165 164.657 8.09206C164.478 7.22246 164.046 6.42532 163.414 5.80098C162.783 5.17663 161.981 4.75299 161.11 4.58337C160.238 4.41375 159.336 4.50574 158.517 4.84775C157.697 5.18977 156.997 5.76652 156.505 6.50542C156.013 7.24432 155.75 8.11234 155.75 9.00021C155.753 9.59464 155.872 10.1827 156.103 10.7307C156.333 11.2788 156.669 11.776 157.092 12.194C157.514 12.612 158.015 12.9426 158.566 13.1667C159.116 13.3908 159.706 13.5042 160.3 13.5002V13.5002Z" fill="white" stroke="#184977"/>
<path fill-rule="evenodd" clip-rule="evenodd" d="M162.32 9C162.321 8.51604 162.179 8.04264 161.91 7.64C161.641 7.23953 161.258 6.92938 160.81 6.75V11.25C161.258 11.0706 161.641 10.7605 161.91 10.36C162.179 9.95736 162.321 9.48396 162.32 9V9ZM159.8 11.25V6.75C159.349 6.9286 158.962 7.23861 158.689 7.63982C158.417 8.04103 158.271 8.51492 158.271 9C158.271 9.48508 158.417 9.95897 158.689 10.3602C158.962 10.7614 159.349 11.0714 159.8 11.25V11.25Z" fill="#184977"/>
<path d="M141.67 0.669922H111.67C111.405 0.669922 111.15 0.775279 110.963 0.962815C110.775 1.15035 110.67 1.40471 110.67 1.66992V16.3299C110.67 16.5951 110.775 16.8495 110.963 17.037C111.15 17.2246 111.405 17.3299 111.67 17.3299H141.67C141.935 17.3299 142.189 17.2246 142.377 17.037C142.565 16.8495 142.67 16.5951 142.67 16.3299V1.66992C142.67 1.40471 142.565 1.15035 142.377 0.962815C142.189 0.775279 141.935 0.669922 141.67 0.669922V0.669922Z" fill="white" stroke="#E0E0E0" stroke-width="0.67"/>
<path d="M128.79 11.69L128.51 11.35V11.69H127.59V11.1C127.472 11.1591 127.342 11.1899 127.21 11.19H126.88V11.69H125.5L125.25 11.36L125 11.69H122.71V9.51H125L125.25 9.83L125.5 9.51H133.9V2H120V7.87L120.52 6.64H121.42L121.72 7.32V6.64H122.84L123.02 7.14L123.19 6.64H128.19V6.89C128.393 6.7243 128.648 6.63574 128.91 6.64H130.51L130.81 7.32V6.64H131.76L132 7V6.64H133V8.82H132L131.75 8.43V8.82H130.37L130.23 8.49H129.86L129.72 8.82H128.87C128.619 8.83266 128.373 8.75056 128.18 8.59V8.82H126.77L126.49 8.48V8.82H121.25L121.12 8.49H120.74L120.6 8.82H120V15.91H133.91V11.53C133.756 11.641 133.57 11.6973 133.38 11.69H128.79Z" fill="#0079C1"/>
<path d="M133.92 9.78019L133.76 10.1502L132.98 9.99019C132.964 9.98359 132.947 9.98019 132.93 9.98019C132.913 9.98019 132.896 9.98359 132.88 9.99019C132.871 10.0195 132.871 10.0509 132.88 10.0802C132.88 10.1173 132.895 10.1529 132.921 10.1792C132.947 10.2054 132.983 10.2202 133.02 10.2202H133.4C133.73 10.2202 133.92 10.3902 133.92 10.6902C133.934 10.7595 133.934 10.8309 133.92 10.9002C133.892 10.9699 133.847 11.0317 133.79 11.0802C133.736 11.1298 133.673 11.1678 133.605 11.1919C133.536 11.216 133.463 11.2256 133.39 11.2202H132.54V10.8502H133.46C133.466 10.8341 133.466 10.8163 133.46 10.8002C133.465 10.7805 133.465 10.7599 133.46 10.7402H133.41H132.96C132.894 10.7545 132.826 10.7545 132.76 10.7402C132.696 10.7208 132.638 10.6865 132.59 10.6402C132.539 10.5942 132.501 10.5356 132.48 10.4702C132.466 10.4077 132.466 10.3427 132.48 10.2802C132.48 10.2072 132.497 10.1352 132.53 10.0702C132.558 10.0031 132.599 9.94198 132.65 9.89019C132.705 9.84042 132.769 9.80292 132.84 9.78019C132.909 9.76533 132.981 9.76533 133.05 9.78019H133.92Z" fill="#0079C1"/>
<path d="M105 0.669922H75C74.7348 0.669922 74.4804 0.775279 74.2929 0.962815C74.1054 1.15035 74 1.40471 74 1.66992V16.3299C74 16.5951 74.1054 16.8495 74.2929 17.037C74.4804 17.2246 74.7348 17.3299 75 17.3299H105C105.265 17.3299 105.52 17.2246 105.707 17.037C105.895 16.8495 106 16.5951 106 16.3299V1.66992C106 1.40471 105.895 1.15035 105.707 0.962815C105.52 0.775279 105.265 0.669922 105 0.669922V0.669922Z" fill="white" stroke="#E0E0E0" stroke-width="0.67"/>
<path d="M86.46 14C87.4489 14 88.4156 13.7068 89.2378 13.1573C90.0601 12.6079 90.7009 11.827 91.0794 10.9134C91.4578 9.99979 91.5568 8.99446 91.3639 8.02455C91.171 7.05465 90.6948 6.16373 89.9955 5.46447C89.2962 4.76521 88.4053 4.289 87.4354 4.09608C86.4655 3.90315 85.4602 4.00217 84.5465 4.3806C83.6329 4.75904 82.852 5.39991 82.3026 6.22215C81.7532 7.0444 81.46 8.0111 81.46 9C81.46 10.3261 81.9867 11.5979 82.9244 12.5355C83.8621 13.4732 85.1339 14 86.46 14V14Z" fill="#007BDB"/>
<path d="M93.54 14.0001C94.5262 13.9883 95.487 13.685 96.3013 13.1285C97.1156 12.5719 97.7471 11.7869 98.1164 10.8723C98.4856 9.95773 98.5761 8.95434 98.3765 7.98842C98.1768 7.0225 97.696 6.13721 96.9944 5.44393C96.2928 4.75066 95.4018 4.28038 94.4336 4.09227C93.4653 3.90415 92.4631 4.00661 91.553 4.38675C90.6428 4.76689 89.8654 5.40772 89.3186 6.22862C88.7718 7.04951 88.4801 8.01379 88.48 9.00013C88.4799 9.66182 88.6112 10.3169 88.8662 10.9275C89.1213 11.5381 89.4949 12.092 89.9656 12.557C90.4363 13.0221 90.9946 13.3892 91.6081 13.6369C92.2217 13.8846 92.8783 14.0081 93.54 14.0001V14.0001Z" fill="#E42B00"/>
<path fill-rule="evenodd" clip-rule="evenodd" d="M90 12.5799C90.8967 11.5927 91.4325 10.3308 91.52 8.99992C91.4325 7.66909 90.8967 6.40716 90 5.41992C89.5084 5.87561 89.1187 6.4302 88.8568 7.04722C88.5948 7.66424 88.4664 8.32973 88.48 8.99992C88.4683 9.66985 88.5975 10.3348 88.8594 10.9515C89.1213 11.5683 89.5099 12.1231 90 12.5799V12.5799Z" fill="#1740CE"/>
<path d="M68.3301 0.669922H38.3301C38.0649 0.669922 37.8105 0.775279 37.623 0.962815C37.4354 1.15035 37.3301 1.40471 37.3301 1.66992V16.3299C37.3301 16.5951 37.4354 16.8495 37.623 17.037C37.8105 17.2246 38.0649 17.3299 38.3301 17.3299H68.3301C68.5953 17.3299 68.8496 17.2246 69.0372 17.037C69.2247 16.8495 69.3301 16.5951 69.3301 16.3299V1.66992C69.3301 1.40471 69.2247 1.15035 69.0372 0.962815C68.8496 0.775279 68.5953 0.669922 68.3301 0.669922V0.669922Z" fill="white" stroke="#E0E0E0" stroke-width="0.67"/>
<path d="M49.8002 14.0001C50.7865 13.9883 51.7472 13.685 52.5615 13.1285C53.3759 12.5719 54.0074 11.7869 54.3766 10.8723C54.7459 9.95773 54.8364 8.95434 54.6367 7.98842C54.4371 7.0225 53.9562 6.13721 53.2546 5.44393C52.553 4.75066 51.6621 4.28038 50.6938 4.09227C49.7256 3.90415 48.7234 4.00661 47.8132 4.38675C46.9031 4.76689 46.1257 5.40772 45.5789 6.22862C45.0321 7.04951 44.7403 8.01379 44.7402 9.00013C44.7402 9.66182 44.8715 10.3169 45.1265 10.9275C45.3815 11.5381 45.7552 12.092 46.2258 12.557C46.6965 13.0221 47.2548 13.3892 47.8684 13.6369C48.482 13.8846 49.1386 14.0081 49.8002 14.0001V14.0001Z" fill="#CC0000"/>
<path d="M56.8701 14C57.859 14 58.8257 13.7068 59.648 13.1573C60.4702 12.6079 61.1111 11.827 61.4895 10.9134C61.868 9.99979 61.967 8.99446 61.774 8.02455C61.5811 7.05465 61.1049 6.16373 60.4057 5.46447C59.7064 4.76521 58.8155 4.289 57.8456 4.09608C56.8757 3.90315 55.8703 4.00217 54.9567 4.3806C54.0431 4.75904 53.2622 5.39991 52.7128 6.22215C52.1634 7.0444 51.8701 8.0111 51.8701 9C51.8701 10.3261 52.3969 11.5979 53.3346 12.5355C54.2723 13.4732 55.544 14 56.8701 14V14Z" fill="#FF9900"/>
 </svg>
